# xmcd CD database file
#
# Track frame offsets:
#	150
#	18733
#	57425
#	85404
#	107689
#	138626
#	157261
#	178511
#	210136
#	241158
#	267235
#	290525
#
# Disc length: 4071 seconds
#
# Revision: 0
# Processed by: cddbd v1.5.2PL0 Copyright (c) Steve Scherf et al.
# Submitted via: CDex 1.70beta2
#
DISCID=ac0fe50c
DTITLE=Jacques Schwarz-Bart - Abyss
DYEAR=2008
DGENRE=Jazz
TTITLE0=Pan Ga To
TTITLE1=Abyss
TTITLE2=Dlo Pann
TTITLE3=Nubian
TTITLE4=Big Blue
TTITLE5=Mendé Chiraj
TTITLE6=André
TTITLE7=Simone
TTITLE8=Dlo Chayé
TTITLE9=Motoyo
TTITLE10=After She Left
TTITLE11=An Ba Mango La
EXTD=YEAR: 2008
EXTT0=
EXTT1=
EXTT2=
EXTT3=
EXTT4=
EXTT5=
EXTT6=
EXTT7=
EXTT8=
EXTT9=
EXTT10=
EXTT11=
PLAYORDER=
